<?xml version="1.0" encoding="UTF-8"?>
<svg id="Layer_1" data-name="Layer 1" xmlns="http://www.w3.org/2000/svg" version="1.1" viewBox="0 0 500 500">
  <defs>
    <style>
      .cls-1 {
        fill: #fff;
        stroke-width: 0px;
      }
    </style>
  </defs>
  <path class="cls-1" d="M464.5,148.8l18.9-40.8-174.3,73.6c-7.4,3.1-13.9,8.1-18.8,14.4l-41.2,52.9-41.2-52.9c-4.9-6.3-11.4-11.3-18.8-14.4L14.8,108l18.9,40.8,141.2,59.7v15.3l-132.4-55.9,18.9,40.8,113.5,48v15.3l-104.7-44.2,18.9,40.8,85.8,36.3,33.2,14v-67.5l41,52.6,41-52.6v67.5l33.2-14,85.8-36.3,18.9-40.8-104.7,44.2v-15.3l113.5-48,18.9-40.8-132.4,55.9v-15.3l141.2-59.7Z"/>
</svg>
